<?xml version="1.0" encoding="UTF-8" standalone="no"?>
<!-- Created with Inkscape (http://www.inkscape.org/) -->

<svg
   width="1367.26mm"
   height="308.66864mm"
   viewBox="0 0 1367.26 308.66864"
   version="1.1"
   id="svg1"
   inkscape:version="1.4.3 (0d15f75, 2025-12-25)"
   sodipodi:docname="ripple-logo-with-text.svg"
   xmlns:inkscape="http://www.inkscape.org/namespaces/inkscape"
   xmlns:sodipodi="http://sodipodi.sourceforge.net/DTD/sodipodi-0.dtd"
   xmlns:xlink="http://www.w3.org/1999/xlink"
   xmlns="http://www.w3.org/2000/svg"
   xmlns:svg="http://www.w3.org/2000/svg">
  <sodipodi:namedview
     id="namedview1"
     pagecolor="#ffffff"
     bordercolor="#000000"
     borderopacity="0.25"
     inkscape:showpageshadow="2"
     inkscape:pageopacity="0.0"
     inkscape:pagecheckerboard="0"
     inkscape:deskcolor="#d1d1d1"
     inkscape:document-units="mm"
     inkscape:zoom="0.12173362"
     inkscape:cx="1803.1173"
     inkscape:cy="628.4213"
     inkscape:window-width="1920"
     inkscape:window-height="991"
     inkscape:window-x="-9"
     inkscape:window-y="-9"
     inkscape:window-maximized="1"
     inkscape:current-layer="layer1" />
  <defs
     id="defs1">
    <linearGradient
       inkscape:collect="always"
       xlink:href="#linearGradient63"
       id="linearGradient64"
       x1="-274.82571"
       y1="495.57513"
       x2="-43.270412"
       y2="220.56248"
       gradientUnits="userSpaceOnUse"
       gradientTransform="matrix(1.0277478,0,0,1.0237361,110.7456,-206.58952)" />
    <linearGradient
       id="linearGradient63"
       inkscape:collect="always">
      <stop
         style="stop-color:#bc2f02;stop-opacity:1;"
         offset="0"
         id="stop63" />
      <stop
         style="stop-color:#ef9e35;stop-opacity:1;"
         offset="0.64032257"
         id="stop64" />
    </linearGradient>
  </defs>
  <g
     inkscape:label="Layer 1"
     inkscape:groupmode="layer"
     id="layer1"
     transform="translate(193.83333,-11.778488)">
    <text
       xml:space="preserve"
       style="font-style:normal;font-variant:normal;font-weight:bold;font-stretch:normal;font-size:305.655px;font-family:Montserrat;-inkscape-font-specification:'Montserrat, Bold';font-variant-ligatures:normal;font-variant-caps:normal;font-variant-numeric:normal;font-variant-east-asian:normal;writing-mode:lr-tb;direction:ltr;display:inline;mix-blend-mode:normal;fill:#152c3e;fill-opacity:1;stroke-width:0.477585"
       x="123.11884"
       y="270.25162"
       id="text6"
       transform="scale(1.0323354,0.96867743)"
       inkscape:label="Ripple Text"><tspan
         sodipodi:role="line"
         id="tspan6"
         style="font-style:normal;font-variant:normal;font-weight:bold;font-stretch:normal;font-size:305.655px;font-family:Montserrat;-inkscape-font-specification:'Montserrat, Bold';font-variant-ligatures:normal;font-variant-caps:normal;font-variant-numeric:normal;font-variant-east-asian:normal;fill:#152c3e;fill-opacity:1;stroke-width:0.477585"
         x="123.11884"
         y="270.25162">Ripple</tspan></text>
    <path
       style="display:inline;mix-blend-mode:normal;fill:url(#linearGradient64);fill-opacity:1;stroke-width:1.77313"
       d="m -110.92673,293.17201 c -4.69334,-0.73391 -14.38961,-3.4677 -13.90571,-3.92059 0.1007,-0.0943 1.24284,-0.75102 2.53811,-1.45951 17.09428,-9.35005 25.38167,-24.45213 27.29742,-49.74392 2.9987,-39.58878 24.23176,-63.28851 61.271886,-68.38991 14.062668,-1.93681 19.525272,-6.49328 19.526302,-16.28728 8.23e-4,-12.48002 -8.881254,-17.83896 -26.666522,-16.08825 -30.596236,3.01176 -50.973906,-7.49486 -63.765046,-32.87699 -4.03344,-8.003767 -5.08502,-8.957719 -9.9243,-9.002941 -7.11232,-0.06641 -12.56869,5.811211 -20.72235,22.322381 -22.35761,45.27426 -13.26651,98.98518 23.03518,136.0935 2.72716,2.78778 2.73915,2.47256 -0.28877,7.59353 -5.81923,9.84178 -5.83522,9.84036 -15.83221,-1.40184 -41.97529,-47.20377 -46.70168,-114.7288 -11.68538,-166.947395 6.07166,-9.054463 10.88553,-13.016034 17.7684,-14.6225 6.57721,-1.535137 9.62901,-0.922474 29.09829,5.841565 5.80035,2.015172 12.0422,3.602917 19.63625,4.99489 6.029982,1.105275 24.5457,1.215872 29.437911,0.175903 64.985074,-13.815238 107.673377,71.664897 56.756266,113.650257 -4.9308615,4.06588 -4.8245885,3.6877 -1.551189,5.51943 10.620855,5.94318 19.33336,15.11195 29.071472,30.5939 15.524683,24.68164 32.104117,38.22452 51.491052,42.06033 2.12461,0.42036 1.93691,0.85292 -1.177531,2.7133 C 57.607606,303.62784 22.570177,294.01659 -4.5995875,257.9075 -14.840487,244.2971 -16.076091,242.77783 -21.220126,237.47134 c -14.622259,-15.08411 -23.405081,-14.0253 -25.945877,3.12783 -3.926524,26.50793 -16.585191,43.36476 -37.894497,50.46181 -6.32392,2.10617 -19.18515,3.15587 -25.86623,2.1111 z m 20.34244,-12.64808 c 15.85481,-8.36986 25.026103,-23.03006 27.847644,-44.51402 3.002522,-22.86243 13.569061,-33.50219 35.114592,-35.3579 53.357822,-4.59572 61.019154,-75.84898 9.971918,-92.74229 -7.287974,-2.41184 -12.095361,-2.74484 -23.395592,-1.6205 -20.849691,2.07446 -39.446122,0.40235 -55.154102,-4.95923 -5.49989,-1.877261 -5.77294,-1.830255 -3.79081,0.6526 11.64232,14.58338 35.740648,22.3663 58.944912,19.03719 25.983996,-3.72791 44.1526525,9.67295 43.9956155,32.4503 -0.129069,18.72723 -12.42391,31.16962 -32.3675825,32.75619 -28.335137,2.25418 -46.164355,22.44835 -48.847005,55.32631 -1.47076,18.02523 -7.17979,32.09143 -16.11551,39.7062 -2.54886,2.17208 -1.22519,1.91583 3.79592,-0.73485 z m 147.036877,0.13317 c 0,-0.20939 -0.794829,-0.75397 -1.766266,-1.21014 -9.806918,-4.60512 -17.569667,-12.4894 -28.852679,-29.30438 -15.9599595,-23.78491 -25.28041054,-30.83637 -41.680535,-31.53375 -5.824397,-0.24767 -5.851216,-0.43381 0.462421,3.21168 6.7694615,3.90869 11.8708985,9.41575 22.6072755,24.4049 14.6440515,20.44474 27.8298535,30.3693 45.2262345,34.04046 4.079237,0.86085 4.003549,0.85346 4.003549,0.39123 z m 3.017151,-36.38967 c -5.958502,-7.5515 -5.763939,-6.587 -2.202889,-10.92147 C 141.39932,130.9415 6.9818685,-13.476918 -96.64155,67.986413 c -1.19457,0.939118 -1.19457,0.939118 -4.43174,-0.269702 -3.92344,-1.465104 -7.87083,-2.367845 -12.2719,-2.806501 -3.29706,-0.328633 -3.29706,-0.328633 -0.045,-3.330976 57.173095,-52.7833269 149.010735,-39.419982 191.461723,27.859718 27.800017,44.059678 28.077397,99.444468 0.718558,143.471408 -3.73588,6.01192 -11.837387,16.28078 -13.788307,17.47697 -0.260651,0.15982 -2.750074,-2.59414 -5.53208,-6.1199 z m -169.095438,-6.3132 c -29.46246,-30.62788 -33.39405,-86.58758 -8.71799,-124.08621 3.18314,-4.83723 3.56213,-5.05106 4.59699,-2.5939 0.89948,2.13572 3.41348,6.10355 5.97392,9.42854 1.9346,2.51229 1.9346,2.51229 0.39946,5.1401 -15.64247,26.77619 -15.53993,61.48238 0.26087,88.30938 2.02619,3.4401 2.02619,3.4401 1.31183,6.87118 -0.80125,3.84835 -1.60491,10.97399 -1.77779,15.7627 -0.11473,3.17721 -0.11473,3.17721 -2.04729,1.16821 z M 42.996311,221.48285 c -2.27505,-2.92363 -6.458964,-7.84413 -8.092266,-9.51691 -1.902189,-1.9482 -1.907054,-1.86483 0.267025,-4.59974 C 82.618853,147.67891 22.773208,56.632183 -51.356412,75.726847 -61.74359,78.402426 -68.228704,78.262693 -79.78601,75.114235 -86.36037,73.323226 -65.022695,62.367646 -48.581844,59.092805 32.925533,42.857474 96.878826,135.92202 54.471099,209.05495 c -6.689982,11.53699 -9.662682,14.75658 -11.474788,12.4279 z M -100.84314,198.67954 c -7.97178,-17.45849 -7.46025,-41.808 1.26634,-60.27926 2.5142,-5.32173 2.04964,-5.10888 5.31069,-2.43326 1.42295,1.16749 4.07087,3.09008 5.88424,4.2724 1.81338,1.18231 3.36861,2.20808 3.45605,2.27948 0.0875,0.0714 -0.5835,1.99264 -1.491,4.26941 -3.1678,7.94749 -4.55898,15.1443 -4.54344,23.50389 0.011,5.88001 0.27028,7.81956 1.69945,12.71019 0.77839,2.66361 0.77839,2.66361 -2.35723,6.77557 -1.72462,2.26157 -4.03349,5.84578 -5.13081,7.96492 -2.39286,4.62095 -2.41019,4.62493 -4.09429,0.93666 z m 23.19223,-31.30782 c 0.30633,-7.75043 2.53613,-16.76329 4.79958,-19.40005 0.0589,-0.0685 2.31129,0.38983 5.005413,1.01861 2.694111,0.6288 6.223117,1.28382 7.842177,1.45558 1.619078,0.17185 2.943788,0.35979 2.943788,0.4178 0,0.0579 -0.745789,1.81281 -1.65729,3.89958 -0.911509,2.08675 -1.923355,5.09819 -2.248514,6.69211 -0.591232,2.89798 -0.591232,2.89798 -4.418895,4.86793 -4.213879,2.1687 -5.900039,3.25833 -9.167909,5.92456 -3.38174,2.75911 -3.39906,2.73183 -3.09835,-4.87612 z"
       id="path17-5"
       inkscape:label="Ripple-R-Logo" />
  </g>
</svg>
