<?xml version="1.0" encoding="UTF-8" standalone="no"?>
<!-- Created with Inkscape (http://www.inkscape.org/) -->

<svg
   width="4544.0176"
   height="2886.322"
   viewBox="0 0 1202.2712 763.67269"
   version="1.1"
   id="svg1"
   xml:space="preserve"
   sodipodi:docname="ripple-jsy-map-logo.svg"
   inkscape:version="1.4.3 (0d15f75, 2025-12-25)"
   xmlns:inkscape="http://www.inkscape.org/namespaces/inkscape"
   xmlns:sodipodi="http://sodipodi.sourceforge.net/DTD/sodipodi-0.dtd"
   xmlns:xlink="http://www.w3.org/1999/xlink"
   xmlns="http://www.w3.org/2000/svg"
   xmlns:svg="http://www.w3.org/2000/svg"><sodipodi:namedview
     id="namedview1"
     pagecolor="#ffffff"
     bordercolor="#000000"
     borderopacity="0.25"
     inkscape:showpageshadow="false"
     inkscape:pageopacity="0.0"
     inkscape:pagecheckerboard="false"
     inkscape:deskcolor="#d1d1d1"
     inkscape:document-units="mm"
     inkscape:zoom="0.17215734"
     inkscape:cx="1902.3296"
     inkscape:cy="1153.0151"
     inkscape:window-width="1920"
     inkscape:window-height="991"
     inkscape:window-x="-9"
     inkscape:window-y="-9"
     inkscape:window-maximized="1"
     inkscape:current-layer="layer1"
     showborder="false"
     borderlayer="true"><inkscape:page
       x="0"
       y="0"
       width="1202.2712"
       height="763.67267"
       id="page2"
       margin="0"
       bleed="0" /></sodipodi:namedview><defs
     id="defs1"><linearGradient
       id="linearGradient66"
       inkscape:collect="always"><stop
         style="stop-color:#bc2f02;stop-opacity:1;"
         offset="0"
         id="stop66" /><stop
         style="stop-color:#ba8243;stop-opacity:1;"
         offset="0.31987578"
         id="stop67" /></linearGradient><linearGradient
       id="linearGradient63"
       inkscape:collect="always"><stop
         style="stop-color:#bc2f02;stop-opacity:1;"
         offset="0"
         id="stop63" /><stop
         style="stop-color:#ef9e35;stop-opacity:1;"
         offset="0.64032257"
         id="stop64" /></linearGradient><linearGradient
       inkscape:collect="always"
       xlink:href="#linearGradient63"
       id="linearGradient64"
       x1="-274.82571"
       y1="495.57513"
       x2="-43.270412"
       y2="220.56248"
       gradientUnits="userSpaceOnUse"
       gradientTransform="matrix(1.1979256,0,0,1.1932496,382.09482,-66.902959)" /><linearGradient
       inkscape:collect="always"
       xlink:href="#linearGradient66"
       id="linearGradient67"
       x1="-6.1474743"
       y1="756.13977"
       x2="1200.2949"
       y2="-1.0602267e-05"
       gradientUnits="userSpaceOnUse" /></defs><path
     id="path1"
     style="display:inline;opacity:1;mix-blend-mode:normal;fill:url(#linearGradient67);fill-opacity:1;stroke-width:5.17757"
     inkscape:label="Outline of Map"
     d="m 520.07472,0.00516764 c -1.75332,0.0954 -3.16836,1.51892476 -3.98064,4.31136476 -2.91502,10.0212296 -3.88321,10.9292376 -12.11554,11.3651976 -7.24911,0.3836 -8.02946,0.0989 -14.07924,-5.137154 -7.26552,-6.2882597 -12.57277,-7.156653 -16.59279,-2.714563 -2.50526,2.76819 -2.49546,2.952168 0.47594,8.562268 3.9015,7.36623 3.82205,8.602257 -0.73794,11.433927 -2.07196,1.28662 -5.10884,3.522853 -6.74842,4.969723 -2.87743,2.53893 -3.22756,2.548495 -10.07122,0.275435 -7.68149,-2.5514 -13.66067,-1.36999 -13.66067,2.69906 0,2.33012 -9.21922,12.07621 -16.44757,17.38757 -3.33524,2.45074 -5.31904,5.366305 -6.48953,9.536885 -1.20829,4.30546 -2.95187,6.796476 -6.1557,8.795846 -4.69507,2.92998 -5.49993,6.537945 -3.23236,14.491105 1.94671,6.82781 -4.46978,6.324536 -13.32942,-1.045414 -10.01264,-8.3291 -26.95029,1.069702 -26.95029,14.954642 0,7.84872 -7.40254,8.79927 -10.4805,1.34565 -4.32554,-10.474688 -8.57589,-12.146691 -18.28725,-7.192321 -7.06966,3.60648 -12.61215,3.462588 -17.36122,-0.451652 -2.1298,-1.75535 -4.934,-3.578716 -6.23217,-4.052466 -2.89064,-1.05431 -9.32459,4.084304 -13.42968,10.726479 -3.19445,5.16871 -4.78083,5.72724 -8.07547,2.84375 -4.99526,-4.371811 -8.20916,-4.060154 -13.09016,1.26866 -3.67959,4.01728 -5.3355,4.90359 -7.94008,4.24987 -5.09633,-1.27907 -10.23298,-5.94591 -15.35049,-13.94592 -2.57325,-4.02261 -5.99659,-8.019102 -7.60728,-8.881112 -1.61069,-0.86201 -3.76546,-3.570177 -4.78834,-6.018237 -2.56787,-6.14582 -5.39454,-8.131161 -12.78992,-8.981881 l -6.35155,-0.730705 v -6.164481 -6.164482 l -9.5896,-0.186552 c -17.92618,-0.34829 -24.51607,-2.127339 -31.40686,-8.479069 -3.79195,-3.49528 -7.52018,-5.718514 -9.5896,-5.718514 -2.23904,0 -4.58592,-1.574068 -6.93033,-4.647778 -1.98627,-2.60416 -6.51509,-5.924948 -10.29963,-7.553028 -6.55698,-2.82074 -6.78114,-3.108277 -7.6724,-9.827307 -0.50502,-3.8067 -1.83448,-7.837739 -2.95485,-8.958109 -3.00657,-3.006563 -7.57668,-1.746349 -9.68778,2.671671 -1.76255,3.6886 -2.17594,3.833778 -8.4615,2.969328 -5.60171,-0.77047 -7.0433,-0.474063 -9.46144,1.944067 -3.22407,3.22407 -3.62121,8.068169 -1.2082,14.741219 2.04581,5.65774 1.14113,6.655775 -8.57157,9.460405 -12.938813,3.73629 -15.180867,3.746339 -23.031666,0.100769 -5.004535,-2.3238 -8.75628,-3.188845 -11.738301,-2.704745 -3.619896,0.58745 -4.785653,0.0962 -6.698816,-2.8236 -5.049836,-7.70706 -15.036845,-9.45119 -22.836849,-3.98787 -1.938688,1.35792 -5.235921,2.166719 -7.898226,1.937349 -6.385803,-0.55017 -8.542631,1.752447 -8.542631,9.118307 0,5.6582 -0.579927,6.746785 -6.477124,12.161015 -3.562425,3.27067 -7.782308,5.946924 -9.377206,5.946924 -4.973518,0 -7.6502259,4.330479 -6.6280189,10.722859 0.857457,5.36225 0.6771102,5.741267 -4.0638347,8.538497 -5.69532681,3.36035 -6.5220577,7.994566 -2.7331665,15.321546 1.8681703,3.612604 1.9785871,5.390174 0.6847128,10.995714 -3.15722444,13.67784 -1.7675367,19.02108 8.2336063,31.65698 5.837448,7.37539 6.003507,8.31559 3.68608,20.89278 -1.63756,8.88745 -1.004214,11.69523 5.675105,25.16229 2.556993,5.15541 8.764628,2.61475 10.115662,-4.14032 1.231899,-6.15954 4.667182,-5.17445 16.086357,4.61213 20.398681,17.48237 28.109548,27.91076 31.957222,43.22061 1.376595,5.47745 4.714247,9.75841 9.021155,13.85962 4.712798,4.48772 10.585852,8.75994 16.320449,14.14849 6.40509,6.01857 12.35028,12.15261 17.3638,17.77773 0.26425,-0.0603 0.53052,-0.11362 0.79788,-0.16227 1.66762,-0.27226 3.3385,-0.51171 5.02192,-0.65939 1.11341,-0.0597 2.22409,-0.14242 3.33416,-0.24236 -0.23735,-0.19739 -0.48019,-0.3915 -0.72863,-0.58188 -5.72795,-4.38909 -10.63875,-11.98984 -13.16923,-13.29738 C 106.94214,250.68016 94.466472,245.29325 87.599304,234.32937 84.82309,223.56169 80.116828,214.70624 72.237968,204.26092 65.05337,194.73601 43.196036,175.42494 37.256124,173.35428 c -4.772836,-1.66381 -8.838141,-0.0533 -11.252027,4.45709 -1.457433,2.72325 -1.679799,2.57649 -4.022493,-2.65617 -1.926314,-4.30256 -2.208192,-6.71167 -1.261422,-10.79107 0.67034,-2.88857 1.230893,-8.396 1.251603,-12.23853 0.02718,-5.80669 -0.719013,-7.96635 -4.419368,-12.78889 C 6.5930081,125.05371 6.6533167,125.17358 7.5282227,119.38496 9.9670657,103.25052 10.006512,99.781968 7.801591,95.362138 L 5.5753703,90.899361 10.599353,86.556474 c 4.40642,-3.80893 4.996972,-5.048517 4.800224,-10.073287 -0.186703,-4.76512 0.206857,-5.729366 2.338875,-5.729366 1.409904,0 6.337027,-3.57992 10.949203,-7.95507 7.968948,-7.55919 8.386051,-8.277747 8.386051,-14.446147 v -6.491076 l 4.740279,0.889351 c 3.660126,0.68665 5.575064,0.232727 8.404138,-1.992643 2.069421,-1.62778 5.662332,-2.881995 8.256344,-2.881995 3.887421,0 5.137498,0.862925 8.140072,5.619295 3.473992,5.50314 3.670731,5.600566 9.521382,4.723226 4.634959,-0.69509 7.242973,-0.24846 11.633915,1.99161 7.024514,3.58366 14.473964,3.970867 21.398694,1.112077 2.91844,-1.20523 7.75994,-2.7203 10.75852,-3.36672 6.94726,-1.49766 8.87777,-5.915019 6.48849,-14.848189 -2.00564,-7.49893 -0.99985,-10.792179 2.97139,-9.728089 1.59314,0.42689 4.28795,1.162329 5.98827,1.634009 2.33145,0.64694 4.01499,-0.152191 6.84919,-3.251481 l 3.75843,-4.109826 1.36943,7.029545 c 1.2888,6.61346 1.77565,7.232809 8.21965,10.457759 3.7672,1.88531 9.09935,5.738011 11.84941,8.561751 3.17856,3.26368 6.26382,5.134054 8.46873,5.134054 2.29408,0 4.46412,1.398607 6.40943,4.130497 1.61758,2.27171 4.58806,4.942035 6.60063,5.934005 5.23428,2.57987 25.20604,5.454129 30.23019,4.350639 4.79417,-1.05297 4.89587,-0.889191 2.58848,4.174939 -1.47773,3.24328 -1.30845,3.937687 1.52135,6.229077 1.75162,1.41839 5.31474,2.578654 7.91786,2.578654 5.77708,0 10.03247,2.106592 10.03247,4.966622 0,1.17179 2.92825,5.052279 6.50709,8.622729 3.57883,3.5705 8.0481,9.122346 9.9317,12.337746 4.31084,7.35877 12.62968,12.43025 20.38997,12.43025 4.97042,0 6.08744,-0.56549 8.09924,-4.10104 2.77905,-4.8839 3.44173,-4.9788 8.68629,-1.24437 5.4935,3.91175 9.27311,2.61909 13.89476,-4.75216 5.74741,-9.166756 7.28872,-10.072323 11.08098,-6.509683 6.47636,6.084213 14.18724,6.480253 24.59902,1.262972 6.06728,-3.04032 8.43289,-1.965091 9.84797,4.477761 1.10189,5.01696 5.40378,8.12664 11.24325,8.12664 5.97009,0 9.39143,-3.69871 10.54664,-11.40241 0.69504,-4.634831 2.03211,-7.205438 5.08289,-9.772528 5.33015,-4.48502 7.89406,-4.387879 14.08648,0.533301 6.32554,5.02684 11.8673,6.325666 16.84962,3.948596 4.31726,-2.05979 5.5571,-7.073677 3.32951,-13.463777 -1.26509,-3.62895 -1.00652,-4.151507 3.31608,-6.701917 3.61539,-2.13316 5.08036,-4.232641 6.40271,-9.176701 1.29838,-4.85443 2.88009,-7.16775 6.51536,-9.5281 5.22572,-3.39302 15.6639,-14.012278 16.63413,-16.922998 0.49766,-1.49318 1.97379,-1.507089 8.35815,-0.07855 6.77842,1.51713 8.15019,1.456596 10.90476,-0.480074 1.73308,-1.21844 5.61723,-3.954292 8.63099,-6.079732 6.31818,-4.45592 7.68137,-9.861239 4.18993,-16.612939 -3.81339,-7.3742041 -2.04061,-7.6281059 6.05234,-0.866614 13.45003,11.23713 30.47715,8.851975 34.03823,-4.768185 l 1.25368,-4.794539 1.40456,3.4778239 c 1.31738,3.2619201 7.03032,8.7906301 16.65738,16.1209801 2.58065,1.96499 4.72199,5.284765 5.66271,8.778275 1.65775,6.15634 7.8594,13.297855 11.80186,13.590385 1.37646,0.102 5.20849,0.295848 8.51524,0.429948 6.30804,0.25598 7.51368,1.218791 16.98501,13.567131 5.46647,7.12697 11.00356,9.604003 21.52427,9.629903 6.86612,0.0166 10.68819,-0.825082 16.69665,-3.676262 4.28563,-2.03365 8.485,-3.697448 9.33225,-3.697448 0.84726,0 5.50489,1.383647 10.35027,3.074747 8.71995,3.04327 8.87629,3.048879 15.32568,0.556039 9.15569,-3.53892 12.80308,-4.047265 17.14779,-2.390035 3.65738,1.3951 3.75396,1.688614 2.90939,8.874394 -0.86481,7.35852 -0.81464,7.493039 5.12165,13.666349 6.4716,6.72996 12.79813,9.998733 20.37912,10.529073 10.71751,0.74966 12.60862,0.107054 18.46709,-6.274036 4.08774,-4.4524 7.10464,-6.438449 10.65464,-7.014559 l 4.95215,-0.803568 0.42892,5.955192 c 0.5817,8.06918 3.80569,9.665509 18.48104,9.151379 14.73784,-0.51631 17.67214,-2.626667 22.61723,-16.266707 2.02474,-5.58473 3.72061,-12.095851 3.76721,-14.469401 0.08,-4.0207 0.54899,-4.426543 6.86728,-5.942273 3.72986,-0.89479 7.50409,-2.4976 8.38708,-3.56154 2.44464,-2.94562 3.71517,-2.453634 11.32283,4.386296 7.97293,7.16839 11.27991,8.737874 18.46192,8.768974 7.31399,0.0304 9.00062,1.529697 7.96024,7.075537 -0.69752,3.71812 -0.11274,5.786826 2.90163,10.263456 17.42816,25.882454 18.71556,27.118984 26.58701,25.544694 4.07982,-0.81593 4.27402,-0.67366 3.32176,2.43034 -2.52018,8.21457 -2.40323,9.08878 1.865,13.95006 2.34984,2.67633 5.16225,7.8636 6.25026,11.52746 1.20829,4.06874 3.86314,8.4882 6.82078,11.35486 4.57018,4.42962 4.79413,5.05963 3.97856,11.2081 -0.76628,5.77645 -0.43657,7.0256 2.91094,11.0231 5.11678,6.11025 9.5242,8.8347 15.95458,9.86297 2.97244,0.4753 8.69687,2.72282 12.72119,4.99401 14.24783,8.04097 29.49674,5.95361 39.3423,-5.38469 5.97465,-6.88047 7.15779,-7.35483 13.80226,-5.53403 8.88476,2.4347 13.22558,1.83375 18.73684,-2.59519 6.74935,-5.42397 17.45811,-10.64571 23.87091,-11.64011 6.9066,-1.07098 8.6112,-2.66752 9.6263,-9.01547 0.464,-2.90172 1.7736,-6.04827 2.9104,-6.99183 1.7617,-1.46183 2.067,-1.13256 2.067,2.22519 0,4.88441 8.5211,15.93712 14.5914,18.92701 5.9909,2.95069 13.7075,2.69421 17.8888,-0.59479 1.9026,-1.49662 3.9225,-2.43516 4.4886,-2.08515 0.5661,0.34984 1.0968,3.64178 1.1798,7.31532 0.1309,5.80871 -0.392,7.16242 -4.0127,10.38851 -2.9937,2.66738 -4.0441,4.70614 -3.7382,7.25692 0.8074,6.73332 13.2826,12.38517 21.8896,9.91671 3.6649,-1.0511 4.5676,-0.69513 7.7111,3.04064 3.5322,4.19792 3.6391,4.22456 13.5785,3.38429 10.9914,-0.92911 12.4096,-0.24006 16.9675,8.23981 4.6056,8.56841 21.5331,12.61039 31.3598,7.48843 3.069,-1.59966 5.8693,-2.90835 6.2229,-2.90835 0.3538,0 0.6494,4.16121 0.6594,9.24698 0.013,7.32046 0.7264,10.4885 3.4246,15.20837 2.551,4.46245 3.4086,7.95492 3.4086,13.88546 0,7.34769 0.3731,8.28895 5.1371,12.95683 2.8254,2.7685 8.6769,7.41217 13.0034,10.31927 l 7.8662,5.28547 -7.1505,1.53375 c -10.4701,2.24541 -17.7755,7.14907 -25.0326,16.80311 -5.8474,7.77914 -6.3755,9.09879 -5.7743,14.4322 0.6262,5.55548 0.3767,6.07051 -4.6499,9.60768 -5.7647,4.05657 -10.7978,12.70255 -10.7978,18.54874 0,4.87127 5.2554,20.13408 8.0538,23.39082 1.2215,1.4215 4.0701,3.3721 6.3304,4.33513 3.0438,1.29677 4.1843,2.75825 4.3971,5.6348 0.9269,12.51465 3.0572,22.75835 5.2323,25.16177 1.7152,1.89525 4.2117,2.69544 8.4088,2.69544 h 5.9696 l -4.8121,9.55549 c -2.6465,5.25528 -4.8116,10.83355 -4.8116,12.39666 0,7.26827 7.7487,15.67851 15.845,17.1974 4.5633,0.85611 4.6059,0.93345 4.3672,7.91322 -0.1327,3.8766 0.2677,9.61639 0.8894,12.75529 1.0769,5.438 0.8657,5.98725 -4.4721,11.64425 l -5.6023,5.9371 -0.036,-4.35425 c -0.041,-5.17523 -3.0958,-8.65994 -7.5928,-8.65994 -5.2911,0 -24.113,10.5503 -31.2488,17.51625 -8.6004,8.39548 -10.252,11.76549 -13.3754,27.29187 -1.4294,7.10616 -4.4086,17.04413 -6.6208,22.08444 -5.5009,12.53318 -7.5007,28.92514 -6.5463,53.65874 0.8221,21.30475 2.8048,34.59296 9.1989,61.64533 2.226,9.41805 4.6821,23.28796 5.458,30.82241 0.776,7.53439 2.6363,18.00123 4.1336,23.25905 1.4974,5.25777 2.7223,11.90633 2.7223,14.77481 0,4.91801 -0.371,5.37433 -6.507,7.99899 -7.7313,3.30707 -11.8564,6.91288 -14.0974,12.32328 -1.9069,4.60368 -3.521,5.06975 -4.6994,1.35702 -1.2355,-3.89249 -6.7309,-6.92701 -14.07,-7.77007 -10.9087,-1.25297 -12.0307,-1.69248 -19.8654,-7.77627 -4.1644,-3.23381 -10.5703,-7.18084 -14.2353,-8.77155 -32.6659,-14.17767 -30.3692,-13.48679 -44.3358,-13.34182 -15.72168,0.16294 -24.72511,3.19434 -37.08717,12.48709 l -8.33799,6.26783 -9.13795,-2.1456 c -19.16223,-4.49936 -33.68509,2.15777 -40.44456,18.53943 -1.18774,2.87857 -3.51788,5.67631 -5.28856,6.34949 h -10e-4 c -1.74096,0.6619 -7.66264,1.78354 -13.1594,2.49287 -9.04174,1.16671 -10.12182,1.0511 -11.33316,-1.21233 -0.73636,-1.37594 -2.7195,-2.50166 -4.40697,-2.50166 -2.38624,0 -6.27736,-4.49063 -17.50797,-20.206 -7.94187,-11.11328 -16.18711,-23.28794 -18.32291,-27.05519 -2.13585,-3.76719 -11.03379,-13.79339 -19.77347,-22.2803 -14.37863,-13.96276 -16.71855,-15.68978 -24.59643,-18.15135 -11.13689,-3.47989 -14.10012,-3.42112 -25.64495,0.50798 -6.20677,2.11234 -11.4136,3.01764 -15.06316,2.61897 -7.4251,-0.81081 -14.91693,2.44872 -17.6134,7.66309 -1.17661,2.27539 -2.77688,8.63118 -3.55585,14.12369 -1.86449,13.1461 -4.69436,23.7553 -7.46363,27.98175 -2.58584,3.9465 -9.91167,8.75933 -13.34802,8.76433 -5.00572,0.0109 -16.02185,-14.51074 -19.4815,-25.68061 -0.88324,-2.85139 -0.53316,-3.08198 4.6793,-3.08198 4.15541,0 6.51692,-0.88263 8.99687,-3.36258 4.97818,-4.97818 4.14675,-9.62029 -3.11919,-17.41703 -3.96037,-4.24969 -3.15874,-6.61872 2.24017,-6.61872 5.07158,0 7.55111,-3.02476 11.83855,-14.44098 1.96898,-5.24275 5.38053,-13.64272 7.58094,-18.66656 2.29372,-5.23696 3.61833,-10.12943 3.10523,-11.467 -1.1345,-2.95649 -16.49113,-12.96096 -19.89491,-12.96096 -4.15647,0 -6.04467,5.95882 -4.14135,13.07517 1.5248,5.70102 1.38698,6.41176 -2.40295,12.38787 -2.21139,3.48693 -4.41226,8.12314 -4.89066,10.30222 -1.39955,6.37208 -4.71737,4.05796 -4.79247,-3.34244 -0.0562,-5.55283 -5.09213,-14.61409 -8.12199,-14.61409 -3.87065,0 -3.52201,-2.01095 1.41387,-8.15299 9.98131,-12.42036 7.73596,-31.01953 -5.14904,-42.65321 -2.87997,-2.60028 -15.09984,-12.38854 -27.15493,-21.75165 -12.05513,-9.36311 -25.18404,-19.68171 -29.176,-22.92986 -3.9919,-3.2482 -10.26488,-7.42926 -13.93971,-9.29142 -18.00607,-9.12437 -85.67814,-17.04464 -111.61438,-13.06329 -23.4899,3.60576 -52.93173,17.0036 -65.64302,29.87156 -13.08071,13.24204 -21.41368,28.55152 -21.41368,39.3423 0,5.30276 3.68074,8.28686 8.3814,6.79494 2.37505,-0.7538 2.07085,0.16995 -2.01176,6.10505 -2.68819,3.90792 -5.57285,10.39983 -6.53862,14.71538 -1.6007,7.15286 -1.50987,8.12111 1.23455,13.1315 l 2.96312,5.40949 -2.69906,5.29115 c -1.48462,2.91011 -2.69957,7.54088 -2.69957,10.29084 0,10.74019 14.89119,30.72681 22.89317,30.72681 4.29127,0 5.14096,2.81753 3.43132,11.3745 -0.98519,4.93375 -0.98089,9.33156 0.0119,14.32574 1.4012,7.05014 1.32161,7.37256 -3.66076,14.87661 -2.80106,4.21868 -5.90863,9.91435 -6.90552,12.65711 -0.99684,2.74272 -2.80717,7.30812 -4.02301,10.14512 -2.20472,5.14443 -2.22071,5.15233 -6.22442,3.08198 -2.20797,-1.14181 -5.54173,-2.07584 -7.40834,-2.07584 -3.27958,0 -3.36857,-0.24457 -2.64376,-7.26726 0.65304,-6.32756 0.3203,-7.76682 -2.57401,-11.13162 -2.14305,-2.4915 -5.22454,-4.17356 -8.67285,-4.73408 -4.5575,-0.74081 -5.47334,-1.47518 -6.19136,-4.96455 -2.28388,-11.09817 -8.81992,-14.91267 -24.21971,-14.13506 -11.3224,0.57176 -13.0187,1.74318 -15.46779,10.68256 -0.72885,2.66034 -2.71904,6.55031 -4.4235,8.64443 l -3.09903,3.80752 -5.74901,-2.27428 c -5.52001,-2.18364 -5.98127,-2.15959 -11.56932,0.60513 -3.20108,1.58376 -6.09201,2.60822 -6.42338,2.27686 -0.33157,-0.33152 0.55962,-2.2401 1.98024,-4.2416 6.54864,-9.22668 7.3651,-11.1199 7.3701,-17.12505 0.005,-4.56133 -0.74681,-6.97747 -2.73214,-8.77414 -1.50688,-1.36372 -2.7404,-4.10324 -2.7404,-6.08749 0,-1.98425 -1.16645,-5.89557 -2.59209,-8.69197 l -2.59209,-5.08445 h 4.05195 c 5.97066,0 8.9337,-2.11579 10.77505,-7.69513 3.27719,-9.92995 -0.52691,-21.58455 -11.8618,-36.34145 -20.50906,-26.70097 -52.58437,-37.56358 -76.08115,-25.76587 -11.01983,5.53305 -14.68214,11.56104 -10.77712,17.73793 0.99384,1.57206 0.27457,2.53252 -3.10317,4.14393 -4.13502,1.9726 -4.39313,2.52426 -4.33823,9.25525 0.0611,7.4877 -0.64543,8.52272 -3.48351,5.10305 -2.26798,-2.73288 -10.15179,-2.62334 -12.47263,0.17312 -2.09381,2.52287 -2.50241,11.88651 -0.73277,16.79277 1.16019,3.21662 1.09794,3.20623 -4.00802,-0.68471 -4.661,-3.55186 -6.237,-3.95222 -15.56236,-3.95222 -11.54266,0 -15.40589,1.84697 -24.89202,11.9016 -4.36096,4.62227 -5.67251,5.22191 -11.42153,5.22191 -4.88343,0 -8.63396,1.19669 -15.11742,4.82244 -10.09765,5.64691 -13.23365,5.2032 -19.28306,-2.728 -3.73065,-4.89109 -3.81161,-4.91927 -11.60136,-4.03799 -7.64437,0.86486 -7.98854,0.7571 -13.5015,-4.22352 -3.11141,-2.811 -5.657019,-6.24688 -5.657019,-7.63571 0,-2.68902 -8.946736,-11.72242 -14.555184,-14.69626 -3.653966,-1.93745 -8.046956,-1.14784 -11.764656,2.1146 -3.272274,2.87148 -5.966263,1.40666 -9.249048,-5.02812 -3.218582,-6.30892 -8.702735,-9.68416 -15.73444,-9.68416 -3.358326,0 -4.862753,-0.62108 -4.862753,-2.00763 0,-1.38329 2.200137,-2.29949 7.073987,-2.94607 5.20128,-0.68996 8.374013,-2.1003 11.986349,-5.32784 3.33425,-2.97912 6.828212,-4.63752 10.873238,-5.16144 3.278021,-0.42461 8.826026,-2.55088 12.328963,-4.72478 5.906778,-3.66572 6.357509,-4.34465 6.214608,-9.3586 -0.08481,-2.97338 -0.618874,-6.79313 -1.187008,-8.48837 -0.736148,-2.19658 -0.494983,-3.08276 0.839225,-3.08354 3.982689,-0.002 18.604598,-8.04229 22.030698,-12.11398 1.98104,-2.35434 4.92352,-7.83503 6.53913,-12.17911 1.61566,-4.34403 4.48102,-10.54818 6.36757,-13.78675 4.31731,-7.41152 7.29872,-16.05637 9.97614,-29.31759 -0.0384,-0.002 -0.0774,-0.006 -0.11731,-0.01 -0.39913,-0.0426 -0.78711,-0.13362 -1.16685,-0.2651 -0.34765,-0.0729 -0.69139,-0.153 -1.048,-0.1726 -0.45829,-0.0439 -0.92221,0.004 -1.38183,-0.014 h -1.64124 v 5.1e-4 c -0.19536,0 -0.37084,-0.0205 -0.52606,-0.0568 -0.0502,0.26953 -0.0995,0.5346 -0.1478,0.79427 -1.49047,8.01493 -4.25606,15.91386 -8.87336,25.34315 -3.68943,7.53439 -7.42897,16.0482 -8.31009,18.91978 -1.9755,6.43794 -11.422187,13.76746 -20.915516,16.22846 -9.062871,2.34937 -10.030443,3.87196 -7.498767,11.79825 1.138237,3.56367 1.825268,7.11766 1.526522,7.89823 -0.995128,2.60116 -9.903888,6.49511 -15.594914,6.81612 -4.236906,0.2391 -6.75596,1.41892 -10.239168,4.79505 -3.454524,3.34823 -6.454405,4.765 -11.891264,5.61568 -7.843806,1.22729 -12.065413,4.72625 -12.065413,9.99991 0,4.35444 2.590822,6.28644 8.428943,6.28644 6.489769,0 11.823469,2.38948 12.898954,5.77794 1.317535,4.15117 8.854117,12.03079 11.506791,12.03079 1.327218,0 3.980633,-1.23301 5.896281,-2.73989 1.9157,-1.50687 4.4626,-2.73936 5.66012,-2.73936 3.019196,0 13.144417,9.39984 13.144417,12.20287 0,2.53877 9.832354,12.57608 14.829064,15.13809 1.94915,0.99922 5.30001,1.27532 8.63669,0.71159 4.99237,-0.84348 5.85041,-0.51068 10.1787,3.94601 7.31197,7.52891 12.77598,7.93148 24.03988,1.77147 6.7662,-3.70031 10.78283,-5.00228 15.4311,-5.00228 5.75952,0 7.04095,-0.6864 15.35358,-8.21965 4.98838,-4.52064 10.39499,-8.27636 12.01426,-8.34626 10.24449,-0.442 15.47675,0.52577 18.69756,3.45767 9.47355,8.62365 17.0657,2.96324 12.41889,-9.25887 -1.45044,-3.81499 -0.48729,-9.14053 1.65312,-9.14053 0.7828,0 3.49931,1.58369 6.03684,3.51917 7.32165,5.58447 9.34414,4.22319 9.34414,-6.28851 0,-8.78845 0.0371,-8.87382 4.45347,-10.3079 7.27753,-2.3632 7.97189,-3.86488 4.5067,-9.7379 l -3.05666,-5.18108 3.89796,-3.11092 c 13.23629,-10.56612 37.26646,-9.31999 55.65655,2.88664 8.98753,5.9656 15.62274,13.01685 23.02185,24.46466 6.35743,9.83624 8.33295,16.38034 6.92361,22.93452 -1.02138,4.75005 -1.09144,4.79025 -7.52151,4.33307 -10.07431,-0.71611 -12.92939,3.96301 -6.72879,11.02878 1.13326,1.29134 2.59168,5.18751 3.24012,8.65839 0.64843,3.47089 2.42215,7.89168 3.94187,9.82369 4.34926,5.52918 3.4513,10.17681 -3.60494,18.65932 -4.44719,5.34599 -4.41068,12.76854 0.0734,14.8115 2.70243,1.23133 4.29701,0.93846 8.86767,-1.63039 5.06925,-2.84905 6.05294,-2.97347 10.89288,-1.37614 2.92625,0.96577 6.67543,1.32568 8.33179,0.79995 3.72034,-1.18079 10.58884,-10.43751 11.78481,-15.88275 1.19421,-5.43722 5.03543,-7.1902 14.10767,-6.43785 6.09213,0.50518 8.19333,1.35279 10.76265,4.33978 1.75592,2.04141 3.19257,5.21843 3.19257,7.06004 0,4.79515 4.89104,9.27263 9.00203,8.24084 4.53497,-1.13818 9.3864,3.71272 8.25583,8.25531 -0.45045,1.80987 -1.181,4.73462 -1.62264,6.49934 -1.05374,4.20863 2.51935,7.75043 7.81864,7.75043 2.24391,0 5.96519,0.97482 8.26926,2.16628 7.07577,3.65904 10.03459,1.80165 14.10664,-8.85476 1.98332,-5.19036 6.11076,-13.58908 9.17153,-18.66397 5.52648,-9.16295 5.55853,-9.29582 4.63434,-19.15852 -0.55876,-5.9629 -0.33436,-12.14668 0.56172,-15.47451 2.1667,-8.04656 -0.13074,-12.13984 -9.02063,-16.07137 -5.56692,-2.46199 -8.23738,-4.79109 -12.01012,-10.47378 -6.52658,-9.83075 -7.40073,-14.78608 -3.7114,-21.03903 3.60281,-6.10653 3.66655,-10.28781 0.24236,-15.91841 -4.45726,-7.32942 -1.31916,-16.62871 9.31209,-27.59366 7.26092,-7.48883 6.80832,-8.53337 -4.35632,-10.049 -6.27547,-0.85187 -6.56583,-1.07667 -5.77071,-4.47414 1.87635,-8.01736 9.39018,-20.7806 17.34209,-29.45867 7.37265,-8.04599 10.53355,-10.23595 25.02587,-17.33693 23.27538,-11.40457 33.79385,-13.96078 57.68433,-14.01878 33.30398,-0.0811 75.62808,6.23229 89.63536,13.37128 3.44159,1.75405 14.30781,9.56778 24.14736,17.36328 9.8395,7.7955 24.77761,19.5706 33.19591,26.16739 17.4148,13.64677 20.83525,18.58574 20.83025,30.07569 -0.003,6.19304 -0.79909,8.41883 -5.47925,15.30862 -3.012,4.43401 -5.47667,9.44399 -5.47667,11.13369 0,3.75482 3.30853,6.74793 6.22288,5.62963 1.54437,-0.59262 2.75108,0.61554 4.29379,4.29896 1.81769,4.34046 1.88636,6.13764 0.44855,11.76311 -1.4668,5.73783 -1.4036,6.93382 0.46716,8.80463 2.26606,2.26601 2.61056,2.17663 11.67835,-3.03599 1.98647,-1.14191 4.1705,-4.59406 5.62498,-8.89041 1.30775,-3.86298 4.42584,-9.572 6.92878,-12.68657 l 4.55063,-5.6627 -2.97967,-5.17798 c -1.63901,-2.84771 -2.51751,-5.46308 -1.95233,-5.81257 0.56518,-0.34928 3.69348,0.93952 6.95203,2.86391 4.05357,2.39385 5.70959,4.19185 5.24361,5.69371 -0.37454,1.2073 -3.72953,9.59268 -7.45588,18.63401 -6.27122,15.21604 -7.06909,16.47261 -10.72751,16.89561 -9.20359,1.06441 -11.59739,9.31394 -4.63744,15.98197 7.75268,7.42759 3.08718,14.38977 -6.8771,10.26242 -3.24732,-1.34736 -4.50538,-1.34432 -6.13813,0.0103 -3.04896,2.53038 -2.59122,4.86157 3.34243,17.02274 6.4499,13.2191 11.98098,20.1665 18.52962,23.27403 4.58401,2.17504 5.15191,2.16025 10.66395,-0.27802 3.20227,-1.41653 7.79996,-4.82812 10.21695,-7.58093 4.85562,-5.53031 6.3873,-10.16534 10.03091,-30.35526 2.06481,-11.4417 3.06273,-14.18271 6.12107,-16.81344 3.08189,-2.65075 4.65522,-3.0154 10.04745,-2.32854 4.36282,0.55576 8.35117,0.0851 12.55789,-1.48156 11.33768,-4.22215 14.96382,-4.62545 22.92728,-2.55127 9.91193,2.58174 13.86847,5.04818 18.85467,11.75587 2.26032,3.04074 7.51048,8.2128 11.6675,11.49336 4.438,3.50236 9.49059,9.23657 12.23905,13.89011 4.97766,8.42784 20.00471,30.15242 29.88138,43.19994 3.66168,4.83719 6.98889,7.87704 8.62221,7.87704 1.66588,0 2.65979,0.93848 2.65979,2.51148 0,1.38132 0.45873,2.97027 1.01957,3.53105 l 5.2e-4,5.1e-4 c 0.56078,0.56073 2.56454,0.72622 4.45244,0.36742 1.8879,-0.35886 8.89204,-1.60387 15.56494,-2.76624 13.81851,-2.4071 16.08381,-3.94018 20.91604,-14.15469 2.15749,-4.56061 5.09136,-8.21006 8.08943,-10.06295 6.55371,-4.05041 17.54856,-4.96483 25.84183,-2.14922 7.9166,2.68778 10.3302,2.10367 19.32337,-4.67724 10.18122,-7.67667 17.27836,-10.79392 28.05105,-12.32172 11.2559,-1.59635 17.9868,-0.4453 31.4549,5.38003 4.9441,2.13839 11.2803,4.69199 14.0803,5.67459 2.8002,0.9826 8.657,4.50287 13.0147,7.82278 9.3284,7.10688 15.1923,9.8857 20.8643,9.8857 7.3271,0 14.2317,3.71757 17.1985,9.26041 2.0224,3.77838 3.6232,5.12321 6.0988,5.12321 2.7911,0 3.7662,-1.1545 5.7873,-6.8492 2.456,-6.91961 8.1734,-12.99707 12.2411,-13.00747 3.8149,-0.0117 9.2957,-5.41807 10.1353,-9.99784 0.5024,-2.74069 -0.5537,-9.54511 -2.8081,-18.09192 -1.9874,-7.53445 -4.1405,-19.55485 -4.7842,-26.71258 -0.6437,-7.15772 -2.7298,-19.17865 -4.6364,-26.7131 -12.27,-48.48853 -13.2911,-89.77457 -2.8453,-115.009 2.5608,-6.1861 5.3348,-15.50143 6.1655,-20.70106 1.9482,-12.1957 5.2135,-19.24445 11.8029,-25.47545 5.494,-5.19517 21.0794,-14.30067 25.8191,-15.08435 2.3534,-0.38904 2.6506,0.22871 2.2872,4.75836 -0.8785,10.94781 6.1558,12.316 14.2399,2.76934 8.7058,-10.28078 8.7989,-10.59481 7.9112,-26.46815 -0.4424,-7.91116 -1.355,-15.08616 -2.0283,-15.94424 -0.6733,-0.85807 -3.8665,-2.2255 -7.0957,-3.03858 -11.5988,-2.92062 -13.4686,-8.59231 -7.0451,-21.35942 6.9716,-13.85651 6.1328,-17.19378 -4.3175,-17.19378 -3.1954,0 -6.1152,-0.49421 -6.4885,-1.09812 -0.3732,-0.60386 -1.3637,-6.61407 -2.2009,-13.3563 -1.9381,-15.60394 -2.9422,-17.94439 -8.1995,-19.09909 -5.0201,-1.10262 -7.1535,-4.11499 -10.4376,-14.73967 -2.2831,-7.38698 -2.293,-8.18064 -0.1613,-12.6509 1.2509,-2.62316 5.3711,-6.99401 9.1561,-9.71311 7.0092,-5.03565 7.9441,-6.99189 5.5118,-11.53676 -1.9849,-3.70879 0.06,-7.93481 8.0915,-16.72404 6.2848,-6.87658 7.9068,-7.86373 16.2264,-9.87537 6.6531,-1.60867 10.4713,-1.87422 13.6245,-0.94775 3.3412,0.98177 4.7675,0.82086 6.011,-0.67747 2.2081,-2.6606 -0.7954,-5.84428 -13.0819,-13.86272 -5.3008,-3.45934 -11.9658,-8.49154 -14.8115,-11.18278 -4.8365,-4.57407 -5.1173,-5.27353 -4.3005,-10.71925 0.7306,-4.87235 0.1768,-7.16524 -3.3874,-14.01361 -3.4598,-6.64779 -4.2633,-9.82258 -4.2633,-16.87494 0,-4.92961 -0.7099,-9.39723 -1.6428,-10.33012 -2.441,-2.44102 -7.1751,-2.00113 -13.4028,1.24489 -9.2537,4.82327 -20.5317,1.15984 -25.9147,-8.41809 -3.7308,-6.6379 -8.9437,-8.75429 -18.5958,-7.54838 -7.4006,0.92472 -7.6115,0.85352 -12.1507,-4.10156 -3.9907,-4.35605 -5.0055,-4.83509 -7.4615,-3.52071 -4.0371,2.1606 -10.679,1.8835 -15.5774,-0.64958 l -4.1982,-2.17092 4.2659,-4.40129 c 3.8528,-3.97518 4.2659,-5.23262 4.2659,-12.98783 0,-4.72267 -0.638,-9.7792 -1.418,-11.23653 -1.8706,-3.49516 -8.1534,-3.4504 -12.6545,0.0899 -5.7827,4.5487 -10.2906,3.56982 -17.3483,-3.76721 -5.2413,-5.44877 -6.2554,-7.37097 -6.2554,-11.81995 0,-6.14856 -2.6134,-8.5446 -7.89,-7.22023 -4.0898,1.02645 -9.2294,8.57096 -9.2294,13.54749 0,2.89917 -0.7945,3.56227 -5.1361,4.28294 -7.0967,1.17789 -18.94838,6.92961 -24.71946,11.99669 -4.14888,3.64252 -5.49995,4.10163 -9.74152,3.31039 -16.10233,-3.00382 -15.92214,-3.0374 -23.0327,4.3279 -8.70701,9.0189 -17.34775,12.44881 -25.43153,10.09499 -3.17732,-0.92513 -8.05639,-3.16218 -10.84275,-4.97075 -2.78636,-1.80858 -7.6677,-3.70424 -10.8474,-4.21267 -3.77838,-0.60417 -7.57367,-2.54391 -10.95488,-5.59862 -4.98372,-4.50252 -5.14387,-4.92474 -4.36304,-11.51765 0.77715,-6.56153 0.58555,-7.08112 -4.64623,-12.58062 -3.08226,-3.23997 -6.16623,-8.24283 -7.08691,-11.49646 -0.89649,-3.16821 -3.13628,-7.54987 -4.97696,-9.73739 -2.89255,-3.43738 -3.23751,-4.8988 -2.54299,-10.76317 1.05897,-8.94125 -1.57939,-11.99777 -9.23872,-10.70374 -5.1275,0.86631 -5.34232,0.72993 -10.10946,-6.41821 -2.67882,-4.016801 -6.76058,-9.768872 -9.07076,-12.782682 -3.49624,-4.56086 -4.06762,-6.316822 -3.40961,-10.473262 1.21098,-7.64861 -2.22864,-10.974496 -12.61577,-12.199256 -7.51891,-0.88655 -9.31335,-1.76986 -17.63665,-8.67854 -5.09639,-4.23018 -10.12182,-7.691003 -11.16779,-7.691003 -1.04592,0 -3.62891,1.45315 -5.7397,3.22926 -2.11084,1.77616 -6.32732,3.627271 -9.36997,4.113961 -6.64696,1.0629 -9.79114,4.921861 -9.79114,12.017871 0,2.77911 -1.34885,8.578349 -2.99775,12.887069 -3.40058,8.88626 -7.59078,11.600936 -17.84904,11.569836 -9.59854,-0.0306 -12.19778,-1.188594 -11.88816,-5.295284 0.50641,-6.72049 -0.13951,-8.452116 -3.65197,-9.787516 -6.10264,-2.32022 -14.75108,0.85663 -20.98735,7.70909 -4.74835,5.21748 -6.22021,6.022371 -11.01277,6.022371 -8.15052,0 -15.64295,-3.556177 -20.6685,-9.809737 -4.27476,-5.31938 -4.37847,-5.735873 -2.697,-10.830863 1.43491,-4.3477 1.42189,-5.691872 -0.0687,-7.488432 -4.95198,-5.96678 -16.68851,-7.948133 -24.12049,-4.072103 -5.02208,2.62119 -12.52528,2.624705 -18.7818,0.01033 -6.93292,-2.89674 -11.85159,-2.567783 -20.28145,1.356507 -9.10444,4.23835 -20.43926,4.627415 -26.50587,0.909505 -2.26037,-1.38526 -6.2249,-5.63123 -8.81032,-9.4356 -5.93929,-8.73942 -10.30785,-11.323856 -19.14146,-11.323856 -8.26474,0 -11.45847,-2.503921 -13.99553,-10.971941 -1.79832,-6.00225 -3.98134,-8.503077 -13.0266,-14.926737 -3.11135,-2.20952 -7.44919,-6.6870871 -9.64075,-9.9502971 -2.80925,-4.18286 -5.62307,-6.25641926 -7.87756,-6.13450926 z M 133.84351,280.01392 c -0.0226,6.1e-4 -0.0542,0.004 -0.092,0.009 0.009,0.004 0.0174,0.007 0.0264,0.0114 0.0281,-0.004 0.0867,0.011 0.10129,-10e-4 l 5.1e-4,-5.1e-4 c 0.002,-0.003 0.003,-0.007 0.002,-0.0124 v -5.1e-4 l -5.1e-4,-5.2e-4 -5.2e-4,-5.2e-4 -5.2e-4,-5.1e-4 c -0.005,-0.003 -0.0178,-0.005 -0.0362,-0.005 z m -6.01255,0.7984 c -0.0819,0.007 -0.16398,0.0134 -0.24598,0.0191 0.0719,0.0568 0.14345,0.11378 0.21445,0.17156 0.008,-0.062 0.018,-0.12594 0.0315,-0.19068 z m 1.30483,5.16092 c 0.10112,0.13016 0.21953,0.27218 0.31884,0.40101 -0.0148,-0.053 -0.0371,-0.10357 -0.0517,-0.15658 -0.0339,-0.0509 -0.0674,-0.10175 -0.10076,-0.15296 -0.0561,-0.0253 -0.11078,-0.0607 -0.1664,-0.0915 z m 8.51627,0.52814 c 0.0106,0.0565 0.0212,0.113 0.032,0.16949 0.004,9.5e-4 0.008,0.002 0.0119,0.003 -0.0144,-0.0575 -0.029,-0.11515 -0.0439,-0.17259 z m 0.1478,0.60719 c 0.007,0.0702 0.0124,0.14086 0.016,0.21136 0.005,0.0221 0.009,0.0442 0.0139,0.0661 0.0517,0.33885 0.0946,0.67912 0.13539,1.01957 0.0375,0.1199 0.0466,0.13232 0.12506,0.27905 -0.0747,-0.52629 -0.17152,-1.05216 -0.29042,-1.57613 z m -2.93367,1.44694 c 0.0354,0.0741 0.0711,0.14836 0.10697,0.22221 -0.004,-0.0696 -0.009,-0.13912 -0.0134,-0.20877 -0.0313,-0.004 -0.0623,-0.009 -0.0935,-0.0134 z m -2.42828,198.68917 c -0.0491,0.0388 -0.0725,0.0895 -0.047,0.15606 0.0233,-0.0471 0.0384,-0.0998 0.047,-0.15606 z m 1.75442,3.95428 c -0.0164,0.0281 -0.0328,0.0566 -0.0491,0.0847 0.0139,0.0969 0.0247,0.19394 0.0346,0.29145 0.0622,-0.0422 0.12564,-0.082 0.18965,-0.11937 -0.0599,-0.0834 -0.11375,-0.17547 -0.17518,-0.25683 z m -1.62316,8.90023 c -3.1e-4,0.0296 -8.9e-4,0.0592 -0.001,0.0889 0.005,0.19377 0.004,0.38746 0.001,0.58085 0.005,-0.0186 0.011,-0.0373 0.0165,-0.0558 0.0208,-0.0698 0.0748,-0.2394 0.13694,-0.40153 -0.001,-0.0709 -0.003,-0.14148 -0.004,-0.21239 -0.0499,-5.5e-4 -0.0996,-7.7e-4 -0.14934,0 z m 1.85002,6.58306 c -0.002,0.0529 -0.003,0.10976 -0.004,0.15865 0.0117,-0.0592 0.025,-0.11838 0.004,-0.15865 z m -0.0274,0.72761 c -0.0905,0.11008 -0.19283,0.22457 -0.26045,0.26768 -0.0121,0.33773 -0.0198,0.67545 -0.0248,1.01337 -0.001,0.12816 -0.003,0.2563 -0.004,0.38448 0.0965,-0.54798 0.19318,-1.10325 0.28939,-1.66553 z m -1.12862,6.22442 c -0.0682,0.0478 -0.1424,0.0892 -0.21445,0.13281 0.065,2.7e-4 0.12748,0.004 0.18707,0.01 0.009,-0.0474 0.0182,-0.0951 0.0274,-0.14263 z m 337.06522,87.65098 c -2.08274,-0.0549 -4.57773,0.48368 -7.22954,1.67949 -6.93028,3.12507 -9.06553,6.47362 -6.05079,9.48831 2.74654,2.74654 3.91629,2.70293 12.2282,-0.45372 5.5109,-2.09293 6.84971,-3.22382 6.84971,-5.78776 0,-3.0945 -2.32636,-4.8348 -5.79758,-4.92632 z m 187.39476,43.45575 c -3.12213,0 -4.63915,1.09906 -7.09001,5.13715 -1.71486,2.82545 -5.77202,7.64554 -9.01598,10.71201 -3.244,3.06641 -5.89835,6.32772 -5.89835,7.2471 0,0.91938 2.46286,3.95843 5.47253,6.7536 4.19927,3.9 5.75066,6.59248 6.66988,11.575 0.6588,3.57108 1.99523,7.45409 2.96985,8.62841 0.97463,1.17433 3.05891,1.95121 4.63175,1.72651 2.69964,-0.38573 2.86828,-1.29007 3.01274,-16.16284 0.11359,-11.68033 0.79128,-17.35839 2.62103,-21.96041 3.35781,-8.44513 2.07061,-13.65653 -3.37344,-13.65653 z m -0.82889,6.98097 c 0.64435,-0.012 -0.28372,3.57834 -2.72438,8.73745 -3.18752,6.73793 -3.4893,8.4609 -2.30115,13.14183 0.7523,2.96297 1.2792,5.36821 1.17099,5.34231 -0.10827,-0.0247 -2.49643,-2.73549 -5.30666,-6.0234 l -5.10925,-5.97793 4.76819,-3.63699 c 2.6227,-2.00045 5.7382,-5.51176 6.92309,-7.80314 1.36154,-2.63286 2.21771,-3.7734 2.57917,-3.78013 z" /><g
     inkscape:label="Text Layer"
     inkscape:groupmode="layer"
     id="layer1"
     transform="translate(96.49113,229.7618)"
     style="display:inline;opacity:1;mix-blend-mode:normal"><text
       xml:space="preserve"
       style="font-style:normal;font-variant:normal;font-weight:normal;font-stretch:normal;font-size:46.608px;font-family:Montserrat;-inkscape-font-specification:'Montserrat, Normal';font-variant-ligatures:normal;font-variant-caps:normal;font-variant-numeric:normal;font-variant-east-asian:normal;writing-mode:lr-tb;direction:ltr;display:inline;fill:#152b41;fill-opacity:1;stroke-width:0.293747"
       x="301.00064"
       y="260.76144"
       id="text6-9"
       inkscape:label="CONNECTING NETWORKS Text"
       transform="scale(1.0332838,0.96778832)"><tspan
         sodipodi:role="line"
         id="tspan6-0"
         style="font-style:normal;font-variant:normal;font-weight:normal;font-stretch:normal;font-size:46.608px;font-family:Montserrat;-inkscape-font-specification:'Montserrat, Normal';font-variant-ligatures:normal;font-variant-caps:normal;font-variant-numeric:normal;font-variant-east-asian:normal;fill:#152b41;fill-opacity:1;stroke-width:0.293747"
         x="301.00064"
         y="260.76144">CONNECTING NETWORKS</tspan></text><text
       xml:space="preserve"
       style="font-style:normal;font-variant:normal;font-weight:bold;font-stretch:normal;font-size:189.816px;font-family:Montserrat;-inkscape-font-specification:'Montserrat, Bold';font-variant-ligatures:normal;font-variant-caps:normal;font-variant-numeric:normal;font-variant-east-asian:normal;writing-mode:lr-tb;direction:ltr;display:inline;opacity:1;mix-blend-mode:normal;fill:#152b41;fill-opacity:1;stroke-width:0.296588"
       x="288.17938"
       y="171.65569"
       id="text6"
       transform="scale(1.0323354,0.96867743)"
       inkscape:label="Ripple Text"><tspan
         sodipodi:role="line"
         id="tspan6"
         style="font-style:normal;font-variant:normal;font-weight:bold;font-stretch:normal;font-size:189.816px;font-family:Montserrat;-inkscape-font-specification:'Montserrat, Bold';font-variant-ligatures:normal;font-variant-caps:normal;font-variant-numeric:normal;font-variant-east-asian:normal;fill:#152b41;fill-opacity:1;stroke-width:0.296588"
         x="288.17938"
         y="171.65569">Ripple</tspan></text></g><g
     inkscape:groupmode="layer"
     id="layer3"
     inkscape:label="Logo Layer"><path
       style="display:inline;opacity:1;mix-blend-mode:normal;fill:url(#linearGradient64);fill-opacity:1;stroke-width:2.06673"
       d="m 123.71727,515.6107 c -5.47048,-0.85544 -16.77229,-4.0419 -16.20826,-4.56978 0.11737,-0.1099 1.44863,-0.87537 2.95838,-1.70118 19.9248,-10.89826 29.58444,-28.50099 31.81741,-57.98068 3.49524,-46.14402 28.24413,-73.76802 71.41748,-79.71413 16.39121,-2.25751 22.75833,-7.56846 22.75953,-18.98418 9.6e-4,-14.5465 -10.35184,-20.79279 -31.08205,-18.75219 -35.66246,3.51045 -59.41433,-8.73589 -74.32347,-38.32087 -4.70131,-9.32906 -5.92701,-10.44097 -11.56759,-10.49368 -8.29,-0.0774 -14.64986,6.77345 -24.15363,26.01859 -26.059655,52.77092 -15.463222,115.37547 26.84942,158.62831 3.17874,3.24938 3.19271,2.88197 -0.33658,8.85089 -6.7828,11.47141 -6.80144,11.46976 -18.45376,-1.63397 C 54.468454,421.93791 48.959459,343.23187 89.773867,282.36675 c 7.077022,-10.55373 12.687993,-15.17127 20.710553,-17.04374 7.66628,-1.78933 11.22341,-1.07522 33.91647,6.80883 6.76079,2.34885 14.03619,4.1995 22.88769,5.82196 7.02844,1.28829 28.61005,1.4172 34.31233,0.20503 75.74551,-16.10281 125.50228,83.5314 66.15415,132.46884 -5.74733,4.73912 -5.62346,4.29831 -1.80804,6.43335 12.37949,6.92727 22.53464,17.61423 33.88522,35.65974 18.09531,28.7685 37.42002,44.55385 60.01711,49.02481 2.47641,0.48997 2.25763,0.99415 -1.37251,3.16258 -38.31878,22.88969 -79.15782,11.68698 -110.82644,-30.40118 -11.93662,-15.86405 -13.37682,-17.63488 -19.37262,-23.82004 -17.04346,-17.58178 -27.28057,-16.34766 -30.24208,3.64575 -4.57669,30.89719 -19.33142,50.54523 -44.16919,58.81743 -7.37105,2.45492 -22.36189,3.67844 -30.14924,2.46067 z m 23.71081,-14.74239 c 18.48009,-9.75577 29.17,-26.84345 32.45874,-51.8848 3.49969,-26.64806 15.81587,-39.04959 40.92898,-41.21257 62.19298,-5.3567 71.1229,-88.4083 11.6231,-108.09886 -8.49474,-2.8112 -14.09815,-3.19934 -27.26951,-1.88883 -24.30205,2.41796 -45.97774,0.46897 -64.28669,-5.7804 -6.41058,-2.1881 -6.72885,-2.13331 -4.41851,0.76067 13.5701,16.99814 41.6587,26.06978 68.7052,22.18942 30.28651,-4.34518 51.46359,11.27463 51.28055,37.82353 -0.15044,21.82815 -14.4811,36.33079 -37.72711,38.18007 -33.02696,2.62743 -53.8084,26.16542 -56.93525,64.48741 -1.71429,21.00991 -8.36864,37.40524 -18.78396,46.28088 -2.97091,2.53174 -1.42806,2.23306 4.42446,-0.85652 z m 171.38371,0.15522 c 0,-0.24406 -0.92644,-0.87882 -2.05873,-1.41052 -11.43078,-5.36765 -20.47891,-14.55744 -33.6302,-34.15669 -18.60266,-27.7233 -29.46642,-35.94236 -48.58213,-36.75522 -6.78882,-0.28867 -6.82008,-0.50564 0.53899,3.74348 7.89037,4.55591 13.83652,10.97485 26.35066,28.44595 17.06886,23.83004 32.43801,35.39794 52.71494,39.67699 4.75469,1.00339 4.66647,0.99477 4.66647,0.45601 z m 3.51674,-42.41519 c -6.94513,-8.8019 -6.71835,-7.6777 -2.56765,-12.72988 98.0634,-119.36092 -58.61133,-287.69261 -179.39304,-192.74032 -1.39238,1.09462 -1.39238,1.09462 -5.16556,-0.31436 -4.5731,-1.7077 -9.17411,-2.75992 -14.30393,-3.27121 -3.843,-0.38305 -3.843,-0.38305 -0.0525,-3.88253 66.64005,-61.52336 173.68446,-45.94727 223.16462,32.47282 32.40324,51.35522 32.72655,115.9108 0.83754,167.22787 -4.35448,7.00739 -13.79746,18.9766 -16.07142,20.37086 -0.30381,0.18629 -3.20544,-3.02369 -6.4481,-7.13325 z m -197.0948,-7.35856 C 90.89278,415.55043 86.310193,350.32475 115.07218,306.61697 c 3.71022,-5.63819 4.15196,-5.88743 5.35818,-3.0234 1.04842,2.48936 3.9787,7.11419 6.9631,10.98974 2.25494,2.92829 2.25494,2.92829 0.4656,5.99122 -18.23259,31.20988 -18.11308,71.66283 0.30407,102.93193 2.36169,4.00972 2.36169,4.00972 1.52905,8.00893 -0.93392,4.48558 -1.87066,12.7911 -2.07217,18.37274 -0.13372,3.70331 -0.13372,3.70331 -2.38628,1.36165 z m 177.89365,-19.19877 c -2.65176,-3.40773 -7.52846,-9.14298 -9.43221,-11.09275 -2.21716,-2.27079 -2.22283,-2.17361 0.31124,-5.36138 55.30434,-69.5705 -14.45074,-175.69304 -100.85498,-153.43662 -12.10712,3.11861 -19.66606,2.95574 -33.13706,-0.71405 -7.66296,-2.08757 17.20787,-14.85721 36.37105,-18.67431 95.00363,-18.92363 169.54652,89.55085 120.11678,174.79336 -7.79773,13.44732 -11.26266,17.20003 -13.37482,14.48575 z M 135.47053,405.47186 c -9.29177,-20.34932 -8.69554,-48.7307 1.47603,-70.26049 2.93051,-6.20293 2.38902,-5.95483 6.19005,-2.83617 1.65857,1.36081 4.74494,3.60174 6.85857,4.97983 2.11365,1.37809 3.92639,2.57371 4.02831,2.65693 0.10195,0.0832 -0.68011,2.32259 -1.73788,4.97635 -3.69233,9.26346 -5.31387,17.65194 -5.29576,27.39574 0.0128,6.85364 0.31504,9.11435 1.98085,14.81478 0.90728,3.10467 0.90728,3.10467 -2.74755,7.8975 -2.01018,2.63604 -4.70136,6.81374 -5.98038,9.28377 -2.78908,5.38611 -2.80928,5.39074 -4.77224,1.09176 z M 162.503,368.97999 c 0.35706,-9.03377 2.95607,-19.53901 5.59431,-22.61237 0.0686,-0.0798 2.69401,0.45437 5.83423,1.18727 3.14021,0.73292 7.25356,1.4964 9.14071,1.6966 1.88717,0.20031 3.43123,0.41936 3.43123,0.48698 0,0.0675 -0.86928,2.11298 -1.93171,4.54529 -1.06244,2.43228 -2.24183,5.94236 -2.62083,7.80021 -0.68913,3.37784 -0.68913,3.37784 -5.15059,5.67397 -4.91163,2.5278 -6.87699,3.79786 -10.68596,6.90557 -3.9417,3.21598 -3.96189,3.18418 -3.61139,-5.68352 z"
       id="path17-5"
       inkscape:label="Ripple-R-Logo" /></g></svg>
